<svg width="461" height="516" viewBox="0 0 461 516" fill="none" xmlns="http://www.w3.org/2000/svg">
<path d="M460.775 285.29C460.775 412.316 357.801 515.29 230.775 515.29C103.75 515.29 0.775146 412.316 0.775146 285.29C0.775146 158.265 103.75 55.2901 230.775 55.2901C357.801 55.2901 460.775 158.265 460.775 285.29Z" fill="#D9D9D9"/>
<path d="M460.775 285.29C460.775 412.316 357.801 515.29 230.775 515.29C103.75 515.29 0.775146 412.316 0.775146 285.29C0.775146 158.265 103.75 55.2901 230.775 55.2901C357.801 55.2901 460.775 158.265 460.775 285.29Z" fill="#3695ED"/>
<path d="M391.775 285.79C391.775 374.432 319.917 446.29 231.275 446.29C142.633 446.29 70.7751 374.432 70.7751 285.79C70.7751 197.148 142.633 125.29 231.275 125.29C319.917 125.29 391.775 197.148 391.775 285.79Z" fill="#1F68F5" fill-opacity="0.72"/>
<path d="M428.936 86.2646C402.328 59.5716 370.843 38.2619 336.277 23.5524C301.711 8.84295 264.742 1.02167 227.48 0.535171C190.218 0.0486687 153.393 6.90647 119.108 20.717C84.8233 34.5276 53.7495 55.0204 27.6609 81.0255L230.275 284.29L428.936 86.2646Z" fill="#1F68F5" fill-opacity="0.7"/>
<path d="M392.816 122.269C371.493 100.878 346.165 83.8953 318.279 72.292C290.392 60.6887 260.494 54.6917 230.29 54.6433C200.086 54.5949 170.168 60.4961 142.244 72.0099C114.321 83.5238 88.9389 100.425 67.5473 121.748L229.921 284.643L392.816 122.269Z" fill="black" fill-opacity="0.1"/>
<path d="M343.592 172.041C328.712 157.114 311.038 145.263 291.578 137.166C272.118 129.069 251.254 124.884 230.177 124.85C209.1 124.817 188.223 128.935 168.737 136.969C149.251 145.004 131.539 156.798 116.611 171.678L229.92 285.35L343.592 172.041Z" fill="black" fill-opacity="0.2"/>
<path d="M286.775 285.79C286.775 316.442 261.927 341.29 231.275 341.29C200.623 341.29 175.775 316.442 175.775 285.79C175.775 255.138 200.623 230.29 231.275 230.29C261.927 230.29 286.775 255.138 286.775 285.79Z" fill="#FAFEFF"/>
</svg>
