<svg width="803" height="804" viewBox="0 0 803 804" fill="none" xmlns="http://www.w3.org/2000/svg">
<circle cx="402" cy="403" r="230" fill="#D9D9D9"/>
<g filter="url(#filter0_d_34_14)">
<circle cx="402" cy="403" r="230" fill="#3695ED"/>
</g>
<g filter="url(#filter1_b_34_14)">
<circle cx="402.5" cy="403.5" r="160.5" fill="#1F68F5" fill-opacity="0.72"/>
</g>
<g filter="url(#filter2_b_34_14)">
<path d="M600.161 203.975C573.553 177.281 542.068 155.972 507.502 141.262C472.936 126.553 435.967 118.732 398.705 118.245C361.443 117.759 324.618 124.616 290.333 138.427C256.048 152.237 224.974 172.73 198.886 198.735L401.5 402L600.161 203.975Z" fill="#1F68F5" fill-opacity="0.7"/>
</g>
<g filter="url(#filter3_b_34_14)">
<path d="M564.041 239.979C542.718 218.588 517.39 201.605 489.503 190.002C461.617 178.399 431.718 172.402 401.514 172.353C371.31 172.305 341.393 178.206 313.469 189.72C285.546 201.234 260.164 218.135 238.772 239.458L401.146 402.353L564.041 239.979Z" fill="black" fill-opacity="0.1"/>
</g>
<g filter="url(#filter4_b_34_14)">
<path d="M514.817 289.751C499.937 274.824 482.263 262.973 462.803 254.876C443.343 246.779 422.479 242.594 401.402 242.56C380.325 242.526 359.447 246.644 339.962 254.679C320.476 262.714 302.764 274.508 287.836 289.388L401.145 403.06L514.817 289.751Z" fill="black" fill-opacity="0.2"/>
</g>
<circle cx="402.5" cy="403.5" r="55.5" fill="#FAFEFF"/>
<defs>
<filter id="filter0_d_34_14" x="142" y="143" width="520" height="520" filterUnits="userSpaceOnUse" color-interpolation-filters="sRGB">
<feFlood flood-opacity="0" result="BackgroundImageFix"/>
<feColorMatrix in="SourceAlpha" type="matrix" values="0 0 0 0 0 0 0 0 0 0 0 0 0 0 0 0 0 0 127 0" result="hardAlpha"/>
<feOffset/>
<feGaussianBlur stdDeviation="15"/>
<feComposite in2="hardAlpha" operator="out"/>
<feColorMatrix type="matrix" values="0 0 0 0 0.212934 0 0 0 0 0.585375 0 0 0 0 0.929167 0 0 0 0.67 0"/>
<feBlend mode="normal" in2="BackgroundImageFix" result="effect1_dropShadow_34_14"/>
<feBlend mode="normal" in="SourceGraphic" in2="effect1_dropShadow_34_14" result="shape"/>
</filter>
<filter id="filter1_b_34_14" x="182" y="183" width="441" height="441" filterUnits="userSpaceOnUse" color-interpolation-filters="sRGB">
<feFlood flood-opacity="0" result="BackgroundImageFix"/>
<feGaussianBlur in="BackgroundImageFix" stdDeviation="30"/>
<feComposite in2="SourceAlpha" operator="in" result="effect1_backgroundBlur_34_14"/>
<feBlend mode="normal" in="SourceGraphic" in2="effect1_backgroundBlur_34_14" result="shape"/>
</filter>
<filter id="filter2_b_34_14" x="138.886" y="58.2209" width="521.275" height="403.779" filterUnits="userSpaceOnUse" color-interpolation-filters="sRGB">
<feFlood flood-opacity="0" result="BackgroundImageFix"/>
<feGaussianBlur in="BackgroundImageFix" stdDeviation="30"/>
<feComposite in2="SourceAlpha" operator="in" result="effect1_backgroundBlur_34_14"/>
<feBlend mode="normal" in="SourceGraphic" in2="effect1_backgroundBlur_34_14" result="shape"/>
</filter>
<filter id="filter3_b_34_14" x="178.772" y="112.353" width="445.269" height="350" filterUnits="userSpaceOnUse" color-interpolation-filters="sRGB">
<feFlood flood-opacity="0" result="BackgroundImageFix"/>
<feGaussianBlur in="BackgroundImageFix" stdDeviation="30"/>
<feComposite in2="SourceAlpha" operator="in" result="effect1_backgroundBlur_34_14"/>
<feBlend mode="normal" in="SourceGraphic" in2="effect1_backgroundBlur_34_14" result="shape"/>
</filter>
<filter id="filter4_b_34_14" x="227.836" y="182.56" width="346.981" height="280.5" filterUnits="userSpaceOnUse" color-interpolation-filters="sRGB">
<feFlood flood-opacity="0" result="BackgroundImageFix"/>
<feGaussianBlur in="BackgroundImageFix" stdDeviation="30"/>
<feComposite in2="SourceAlpha" operator="in" result="effect1_backgroundBlur_34_14"/>
<feBlend mode="normal" in="SourceGraphic" in2="effect1_backgroundBlur_34_14" result="shape"/>
</filter>
</defs>
</svg>
