<svg width="144" height="144" viewBox="0 0 144 144" fill="none" xmlns="http://www.w3.org/2000/svg">
<g clip-path="url(#clip0_5_76)">
<path d="M90 72.0313C89.9964 77.3816 89.0183 82.5037 87.2352 87.232C82.5077 89.0165 77.3834 89.9968 72.031 90.0004H71.969C66.6194 89.9968 61.4966 89.0194 56.7691 87.2356C54.9857 82.5088 54.0036 77.3845 54 72.0328V71.9705C54.0036 66.6202 54.9835 61.4981 56.7641 56.7702C61.4938 54.9868 66.6173 54.0054 71.969 54.0018H72.031C77.3834 54.0054 82.5077 54.9868 87.2348 56.7702C89.0168 61.4984 89.996 66.6205 89.9996 71.9708V72.0331V72.0324L90 72.0313ZM142.999 60.0001H100.971L130.689 30.2821C128.355 27.0054 125.753 23.9289 122.908 21.0848L122.907 21.082C120.065 18.2406 116.992 15.6408 113.718 13.3096L84.0002 43.0276V1.00152C80.0472 0.337292 76.0459 0.00230253 72.0374 0L71.9611 0C67.9532 0.00214097 63.9523 0.33689 59.9998 1.0008V43.0297L30.2818 13.3117C27.0068 15.6438 23.932 18.2448 21.0892 21.0877L21.0784 21.0974C18.2395 23.9381 15.642 27.0101 13.3128 30.2818L43.0308 59.9998H1.0008C1.0008 59.9998 0.00144 67.8946 0 71.9734V72.0256C0.00149977 76.0383 0.33625 80.044 1.0008 84.0013H43.0294L13.3114 113.719C17.9848 120.281 23.7204 126.016 30.2818 130.69L59.9998 100.972V142.999C63.9486 143.662 67.9455 143.997 71.9496 144H72.0526C76.0562 143.997 80.0526 143.662 84.001 142.999V100.97L113.719 130.688C116.993 128.357 120.067 125.757 122.909 122.915L122.916 122.91C125.758 120.067 128.357 116.994 130.689 113.72L100.971 84.0013H142.999C143.662 80.053 143.997 76.0565 144 72.0529V71.9496C143.997 67.946 143.662 63.9495 142.999 60.0012V60.0001Z" fill="#2684FF"/>
</g>
<defs>
<clipPath id="clip0_5_76">
<rect width="144" height="144" fill="white"/>
</clipPath>
</defs>
</svg>
