<svg width="40" height="41" viewBox="0 0 40 41" fill="none" xmlns="http://www.w3.org/2000/svg">
<path d="M15.5021 28.5404C13.7879 28.5404 12.3969 27.1474 12.3969 25.4269V3.61345C12.3969 1.89295 13.7879 0.5 15.5021 0.5C17.2164 0.5 18.6074 1.89295 18.6074 3.61345V25.4269C18.6074 27.1457 17.2164 28.5404 15.5021 28.5404ZM24.3392 39.8545C22.6249 39.8545 21.2339 38.4616 21.2339 36.7411V14.9294C21.2339 13.2106 22.6232 11.8159 24.3392 11.8159C26.0534 11.8159 27.4445 13.2089 27.4445 14.9294V36.7428C27.4445 38.4616 26.0534 39.8545 24.3392 39.8545ZM32.4972 29.9034C31.0833 29.9034 29.9364 28.7535 29.9364 27.3359V19.5646C29.9364 18.147 31.0833 16.9971 32.4972 16.9971C33.9111 16.9971 35.058 18.147 35.058 19.5646V27.3359C35.058 28.7535 33.9111 29.9034 32.4972 29.9034ZM38.4367 22.7221C37.5725 22.7221 36.8735 22.0194 36.8735 21.1548V18.5644C36.8735 17.6979 37.5743 16.9971 38.4367 16.9971C39.3008 16.9971 39.9998 17.6997 39.9998 18.5644V21.1548C39.9998 22.0212 39.3008 22.7221 38.4367 22.7221ZM7.50179 10.0432C8.91568 10.0432 10.0626 11.1931 10.0626 12.6107V20.382C10.0626 21.7996 8.91568 22.9496 7.50179 22.9496C6.0879 22.9496 4.94098 21.7996 4.94098 20.382V12.6107C4.94098 11.1931 6.0879 10.0432 7.50179 10.0432ZM1.56318 17.2241C2.42733 17.2241 3.12637 17.9268 3.12637 18.7914V21.3818C3.12637 22.2483 2.42557 22.9491 1.56318 22.9491C0.699042 22.9491 0 22.2465 0 21.3818V18.7914C0 17.925 0.700798 17.2241 1.56318 17.2241Z" fill="#0100A0"/>
</svg>
